<?xml version="1.0" encoding="utf-8"?>
<!-- Generator: Adobe Illustrator 23.0.5, SVG Export Plug-In . SVG Version: 6.00 Build 0)  -->
<svg version="1.1" id="Layer_1" xmlns="http://www.w3.org/2000/svg" xmlns:xlink="http://www.w3.org/1999/xlink" x="0px" y="0px"
	 viewBox="0 0 533.8 89.4" style="enable-background:new 0 0 533.8 89.4;" xml:space="preserve">
<style type="text/css">
	.st0{fill:#4E46C7;stroke:#000000;stroke-miterlimit:10;}
	.st1{fill:#FFFFFF;}
	.st2{fill:#FBB040;}
</style>
<rect x="-10.6" y="100.9" class="st0" width="533.8" height="89.4"/>
<g>
	<path class="st1" d="M-47.2,203.9c3.5-0.7,9-1.3,14.7-1.3c8,0,13.2,1.4,17.1,4.5c3.2,2.4,5.2,6.1,5.2,11c0,6-4,11.3-10.5,13.7v0.2
		c5.9,1.5,12.8,6.4,12.8,15.6c0,5.4-2.1,9.4-5.3,12.5c-4.3,4-11.3,5.8-21.5,5.8c-5.5,0-9.8-0.4-12.5-0.7
		C-47.2,265.2-47.2,203.9-47.2,203.9z M-39.1,229.3h7.3c8.5,0,13.5-4.4,13.5-10.4c0-7.3-5.5-10.1-13.7-10.1c-3.7,0-5.8,0.3-7.1,0.6
		C-39.1,209.4-39.1,229.3-39.1,229.3z M-39.1,259.1c1.6,0.3,3.9,0.4,6.7,0.4c8.3,0,16-3,16-12.1c0-8.5-7.3-12-16-12h-6.7V259.1z"/>
	<path class="st1" d="M2.8,203.9c4.1-0.8,9.9-1.3,15.4-1.3c8.6,0,14.1,1.6,18,5.1c3.1,2.8,4.9,7,4.9,11.8c0,8.2-5.2,13.7-11.7,15.9
		v0.3c4.8,1.7,7.7,6.1,9.1,12.5c2,8.7,3.5,14.7,4.8,17.1H35c-1-1.8-2.4-7.1-4.2-14.9c-1.8-8.6-5.2-11.8-12.5-12.1h-7.6v26.9h-8
		L2.8,203.9L2.8,203.9z M10.8,232.2H19c8.6,0,14-4.7,14-11.8c0-8-5.8-11.5-14.3-11.6c-3.9,0-6.6,0.4-7.9,0.7
		C10.8,209.5,10.8,232.2,10.8,232.2z"/>
	<path class="st1" d="M63,245.6l-6.5,19.6h-8.3L69.3,203H79l21.2,62.2h-8.6L85,245.6H63z M83.3,239.4l-6.1-17.9
		c-1.4-4.1-2.3-7.7-3.2-11.3h-0.2c-0.9,3.7-1.9,7.5-3.1,11.3l-6.1,18L83.3,239.4L83.3,239.4z"/>
	<path class="st1" d="M109.4,265.2V203h8.8l19.9,31.5c4.6,7.3,8.2,13.8,11.2,20.2l0.2-0.1c-0.7-8.3-0.9-15.9-0.9-25.6v-26h7.6v62.2
		h-8.3l-19.7-31.5c-4.3-6.9-8.5-14-11.6-20.8l-0.3,0.1c0.5,7.8,0.6,15.3,0.6,25.6v26.6H109.4z"/>
	<path class="st1" d="M170,203.9c4.9-0.7,10.7-1.3,17.1-1.3c11.5,0,19.7,2.7,25.2,7.7c5.5,5.1,8.8,12.3,8.8,22.3
		c0,10.1-3.1,18.4-8.9,24.2c-5.8,5.8-15.4,8.9-27.5,8.9c-5.7,0-10.5-0.3-14.6-0.7v-61.1H170z M178.1,258.8c2,0.4,5,0.5,8.1,0.5
		c17.2,0,26.5-9.6,26.5-26.4c0.1-14.7-8.2-24-25.2-24c-4.2,0-7.3,0.4-9.4,0.8V258.8z"/>
	<path class="st1" d="M263.7,236h-24.2v22.4h26.9v6.7h-35V203H265v6.7h-25.5v19.6h24.2V236z"/>
	<path class="st1" d="M276.8,203.9c4.9-0.7,10.7-1.3,17.1-1.3c11.5,0,19.7,2.7,25.2,7.7c5.5,5.1,8.8,12.3,8.8,22.3
		c0,10.1-3.1,18.4-8.9,24.2c-5.8,5.8-15.4,8.9-27.5,8.9c-5.7,0-10.5-0.3-14.6-0.7v-61.1H276.8z M284.9,258.8c2,0.4,5,0.5,8.1,0.5
		c17.2,0,26.5-9.6,26.5-26.4c0.1-14.7-8.2-24-25.2-24c-4.2,0-7.3,0.4-9.4,0.8V258.8z"/>
	<path class="st2" d="M349.3,214.8h-16.7V203h47.8v11.8h-17v50.4h-14.1L349.3,214.8L349.3,214.8z"/>
	<path class="st2" d="M402,203v62.2h-14.1V203H402z"/>
	<path class="st2" d="M446.9,265.2l-5.6-11.3c-2.3-4.3-3.8-7.6-5.5-11.2h-0.2c-1.3,3.6-2.9,6.8-4.8,11.2l-5.2,11.3h-16l18-31.5
		L410.3,203h16.1l5.4,11.3c1.8,3.8,3.2,6.8,4.7,10.3h0.2c1.5-4,2.7-6.7,4.2-10.3l5.3-11.3h16l-17.5,30.3l18.4,31.8h-16.2V265.2z"/>
</g>
<g>
	<path class="st1" d="M13.2,10.9v12.6H31v53.9h15.1V23.6h18.2V10.9H13.2z"/>
	<path class="st1" d="M87.4,65.1V49.3h24.5V37.1H87.4V23.3h26V10.9H72.3v66.5h42.4V65.1H87.4z"/>
	<path class="st1" d="M195.4,49.1l-0.7-13.5l-1.4-24.7h-19.6L166.6,33c-0.3,0.8-0.5,1.7-0.8,2.6c-1.2,4.3-2.5,8.9-3.6,13.5
		c-0.7,2.7-1.3,5.3-1.9,7.8H160c-0.5-2.6-1-5.2-1.6-7.8c-1-4.5-2.2-9.1-3.3-13.5c-0.2-0.8-0.5-1.7-0.7-2.5l-6.5-22.2h-20l-1.6,24.7
		l-0.9,13.5l-1.8,28.3h13.9l1.2-25.3c0.1-1,0.1-2,0.2-3.1c0.2-4.2,0.4-8.9,0.6-13.5c0.1-3.7,0.3-7.5,0.4-11h0.2
		c0.6,3.6,1.4,7.3,2.3,11c1,4.7,2.2,9.3,3.3,13.5c0.1,0.5,0.3,1,0.4,1.5l7.1,25.8h11.7l8.1-26c0.1-0.4,0.3-0.9,0.4-1.3
		c1.4-4.2,2.8-8.8,4.1-13.5c1.1-3.7,2-7.4,2.9-11h0.3c0,3.7,0,7.4,0.1,11c0.1,4.7,0.2,9.3,0.4,13.5c0,1,0.1,1.9,0.1,2.9l1,25.5H197
		L195.4,49.1z"/>
	<path class="st1" d="M249.2,15.8c-4.4-3.5-11-5.3-20.3-5.3c-9.2,0-15.7,0.6-20.3,1.4v65.6h14.9V53.7c1.4,0.2,3.2,0.3,5.1,0.3
		c7.4,0,13.9-1.5,18.9-4.8c1-0.6,1.9-1.4,2.7-2.2c3-2.8,5-6.7,5.8-11.3c0.3-1.4,0.4-2.9,0.4-4.5C256.3,24.7,253.4,19.1,249.2,15.8z
		 M228.5,42.4c-2.2,0-3.8-0.1-5-0.4V22.4c1.1-0.3,3.2-0.6,6.2-0.6c7.5,0,11.7,3.7,11.7,9.8c0,1.5-0.2,2.9-0.7,4.1
		C239,39.9,234.7,42.4,228.5,42.4z"/>
	<path class="st1" d="M281,64.8V10.9h-15.1v66.5h41.6V64.8H281z"/>
	<path class="st1" d="M364,49.1l-4.2-13.5l-7.7-24.7h-19.7l-7.5,24.7l-4.1,13.5L312,77.4h15.6l4.7-17.1h19l5.1,17.1h16.2L364,49.1z
		 M334.5,49.1l3.8-13.5l0.2-0.6c1.1-3.8,2.1-8.9,3.1-12.8h0.2c1,4,2.2,8.9,3.3,12.8l0.2,0.6l4,13.5H334.5z"/>
	<path class="st1" d="M368.4,10.9v12.6h17.9v53.9h15.1V23.6h18.2V10.9H368.4z"/>
	<path class="st1" d="M442.6,65.1V49.3h24.5V37.1h-24.5V23.3h26V10.9h-41.1v66.5H470V65.1H442.6z"/>
	<path class="st1" d="M521.3,49.1c-2.6-4.7-7.6-8.3-15.2-11.1c-2.2-0.9-4.1-1.6-5.7-2.3c-4.5-2.1-6.6-3.9-6.6-7.1
		c0-3.5,3.2-6.4,9.7-6.4c6.5,0,11.3,1.9,13.9,3.2l3.3-12.1c-3.9-1.8-9.5-3.4-17-3.4c-15.7,0-25.2,8.7-25.2,20c0,2.1,0.3,4,1,5.8
		c2.2,6.2,8.1,10.5,16.2,13.5c0.4,0.1,0.7,0.3,1.1,0.4c8,2.9,11.2,5.2,11.2,9.4c0,4.4-3.7,7.2-10.6,7.2c-6.4,0-12.6-2.1-16.7-4.2
		l-3.1,12.4c3.8,2.1,11.3,4,18.8,4c18.3,0,26.8-9.5,26.8-20.6C523.3,54.5,522.7,51.7,521.3,49.1z"/>
</g>
<rect x="31.7" y="-73.6" class="st2" width="15.1" height="13.5"/>
<polygon class="st2" points="88,-72.2 112.5,-72.2 112.5,-60.1 72.9,-60.1 72.9,-72.2 88,-72.2 "/>
<path class="st2" d="M126.8-73.6H140c-0.2,4.6-0.4,9.2-0.6,13.5H126L126.8-73.6z"/>
<path class="st2" d="M155.6-73.6c1.2,4.4,2.3,9,3.3,13.5h-12.7c-1.1-4.2-2.3-8.8-3.3-13.5H155.6z"/>
<path class="st2" d="M166.4-73.6h11.7c-1.3,4.7-2.7,9.3-4.1,13.5h-11.2C164-64.7,165.2-69.3,166.4-73.6z"/>
<path class="st2" d="M195.3-73.6l0.7,13.5h-14.2c-0.1-4.2-0.3-8.8-0.4-13.5H195.3z"/>
<path class="st2" d="M241.3-73.6h15.3c-0.8,4.6-2.7,8.5-5.8,11.3c-0.8,0.8-1.8,1.5-2.7,2.2h-38.9v-13.5H224v6.4
	c1.3,0.3,2.9,0.4,5,0.4C235.3-66.8,239.7-69.3,241.3-73.6z"/>
<rect x="266.5" y="-73.6" class="st2" width="15.1" height="13.5"/>
<polygon class="st2" points="325.4,-73.6 338.9,-73.6 335.2,-60.1 321.3,-60.1 "/>
<polygon class="st2" points="360.4,-73.6 364.6,-60.1 349.9,-60.1 345.9,-73.6 "/>
<rect x="386.9" y="-73.6" class="st2" width="15.1" height="13.5"/>
<polygon class="st2" points="443.2,-72.2 467.7,-72.2 467.7,-60.1 428.1,-60.1 428.1,-73.6 443.2,-73.6 "/>
<path class="st2" d="M521.9-60.1h-25.6c-8.1-3-14-7.3-16.2-13.5H501c1.6,0.7,3.5,1.5,5.7,2.3C514.4-68.4,519.4-64.9,521.9-60.1z"/>
</svg>
